<?xml version="1.0" encoding="UTF-8" standalone="no"?>
<!-- Created with Inkscape (http://www.inkscape.org/) -->

<svg
   width="138.37968mm"
   height="24.371349mm"
   viewBox="0 0 138.37968 24.371349"
   version="1.1"
   id="svg5"
   inkscape:version="1.1.1 (c3084ef, 2021-09-22)"
   sodipodi:docname="wpp4.svg"
   xmlns:inkscape="http://www.inkscape.org/namespaces/inkscape"
   xmlns:sodipodi="http://sodipodi.sourceforge.net/DTD/sodipodi-0.dtd"
   xmlns="http://www.w3.org/2000/svg"
   xmlns:svg="http://www.w3.org/2000/svg">
  <sodipodi:namedview
     id="namedview7"
     pagecolor="#505050"
     bordercolor="#ffffff"
     borderopacity="1"
     inkscape:pageshadow="0"
     inkscape:pageopacity="0"
     inkscape:pagecheckerboard="1"
     inkscape:document-units="mm"
     showgrid="false"
     inkscape:zoom="0.64052329"
     inkscape:cx="233.40291"
     inkscape:cy="256.82126"
     inkscape:window-width="1784"
     inkscape:window-height="1177"
     inkscape:window-x="4747"
     inkscape:window-y="122"
     inkscape:window-maximized="0"
     inkscape:current-layer="layer1"
     fit-margin-top="0"
     fit-margin-left="0"
     fit-margin-right="0"
     fit-margin-bottom="0" />
  <defs
     id="defs2" />
  <g
     inkscape:label="Layer 1"
     inkscape:groupmode="layer"
     id="layer1"
     transform="translate(-43.372738,-80.54937)">
    <rect
       style="fill:#fff513;fill-opacity:1;stroke:none;stroke-width:5.47879;stop-color:#000000"
       id="rect1554"
       width="138.37968"
       height="24.371349"
       x="43.372738"
       y="80.54937" />
    <g
       aria-label="weird press photo"
       id="text1024"
       style="font-size:10.5833px;line-height:1.25;font-family:Metric;-inkscape-font-specification:Metric;fill:#000000;stroke-width:0.264583">
      <path
         d="m 56.352776,88.586391 v 3.989904 h 0.518581 v -0.984247 h 1.968494 v 0.984247 h 0.518582 v -3.989904 h 2.645825 v 8.297307 H 59.358433 V 96.132283 H 58.575269 V 95.19037 H 57.13594 v 0.941913 h -0.783164 v 0.751415 h -2.645825 v -8.297307 z"
         style="font-family:Minecrafter;-inkscape-font-specification:Minecrafter;fill:#000000"
         id="path975" />
      <path
         d="m 69.119211,88.586391 v 2.190743 h -3.534822 v 0.846664 h 3.534822 v 2.222493 h -3.534822 v 0.846663 h 3.534822 v 2.190744 h -6.275896 v -8.297307 z"
         style="font-family:Minecrafter;-inkscape-font-specification:Minecrafter;fill:#000000"
         id="path977" />
      <path
         d="m 72.526703,88.586391 v 8.297307 h -2.614075 v -8.297307 z"
         style="font-family:Minecrafter;-inkscape-font-specification:Minecrafter;fill:#000000"
         id="path979" />
      <path
         d="m 79.703999,88.586391 v 4.741318 h -0.719664 v 0.391582 h 0.719664 v 3.164407 H 76.994674 V 93.87804 h -0.920747 v 3.005658 h -2.709324 v -8.297307 z m -3.598322,3.005657 h 0.857248 v -0.783164 h -0.857248 z"
         style="font-family:Minecrafter;-inkscape-font-specification:Minecrafter;fill:#000000"
         id="path981" />
      <path
         d="m 86.399921,88.586391 v 0.751414 h 0.751414 v 6.794478 h -0.751414 v 0.751415 h -5.841982 v -8.297307 z m -3.100907,6.074814 h 1.111246 v -3.852321 h -1.111246 z"
         style="font-family:Minecrafter;-inkscape-font-specification:Minecrafter;fill:#000000"
         id="path983" />
      <path
         d="m 99.63037,88.586391 v 5.916064 h -3.630072 v 2.381243 h -2.709325 v -8.297307 z m -3.598322,3.91582 h 0.857247 v -1.95791 h -0.857247 z"
         style="font-family:Minecrafter;-inkscape-font-specification:Minecrafter;fill:#000000"
         id="path985" />
      <path
         d="m 106.69968,88.586391 v 4.741318 h -0.71966 v 0.391582 h 0.71966 v 3.164407 h -2.70932 V 93.87804 h -0.92075 v 3.005658 h -2.70932 v -8.297307 z m -3.59832,3.005657 h 0.85725 v -0.783164 h -0.85725 z"
         style="font-family:Minecrafter;-inkscape-font-specification:Minecrafter;fill:#000000"
         id="path987" />
      <path
         d="m 113.82952,88.586391 v 2.190743 h -3.53482 v 0.846664 h 3.53482 v 2.222493 h -3.53482 v 0.846663 h 3.53482 v 2.190744 h -6.2759 v -8.297307 z"
         style="font-family:Minecrafter;-inkscape-font-specification:Minecrafter;fill:#000000"
         id="path989" />
      <path
         d="m 118.47526,94.692954 v -0.846663 h -3.85232 v -5.2599 h 6.52989 v 2.190743 h -3.85232 v 0.846664 h 3.85232 v 5.2599 h -6.52989 v -2.190744 z"
         style="font-family:Minecrafter;-inkscape-font-specification:Minecrafter;fill:#000000"
         id="path991" />
      <path
         d="m 125.79262,94.692954 v -0.846663 h -3.85232 v -5.2599 h 6.52989 v 2.190743 h -3.85232 v 0.846664 h 3.85232 v 5.2599 h -6.52989 v -2.190744 z"
         style="font-family:Minecrafter;-inkscape-font-specification:Minecrafter;fill:#000000"
         id="path993" />
      <path
         d="m 140.8887,88.586391 v 5.916064 h -3.63007 v 2.381243 h -2.70933 v -8.297307 z m -3.59832,3.91582 h 0.85725 v -1.95791 h -0.85725 z"
         style="font-family:Minecrafter;-inkscape-font-specification:Minecrafter;fill:#000000"
         id="path995" />
      <path
         d="m 144.26444,88.586391 v 3.005657 h 1.43933 v -3.005657 h 2.64583 v 8.297307 h -2.64583 V 93.87804 h -1.43933 v 3.005658 h -2.64582 v -8.297307 z"
         style="font-family:Minecrafter;-inkscape-font-specification:Minecrafter;fill:#000000"
         id="path997" />
      <path
         d="m 156.39075,88.586391 v 8.297307 h -7.18606 v -8.297307 z m -4.50848,6.074814 h 1.83091 v -3.852321 h -1.83091 z"
         style="font-family:Minecrafter;-inkscape-font-specification:Minecrafter;fill:#000000"
         id="path999" />
      <path
         d="m 157.18202,90.777134 v -2.190743 h 6.33939 v 2.190743 h -1.79916 v 6.106564 h -2.74107 v -6.106564 z"
         style="font-family:Minecrafter;-inkscape-font-specification:Minecrafter;fill:#000000"
         id="path1001" />
      <path
         d="m 171.41821,88.586391 v 8.297307 h -7.18606 v -8.297307 z m -4.50848,6.074814 h 1.83091 v -3.852321 h -1.83091 z"
         style="font-family:Minecrafter;-inkscape-font-specification:Minecrafter;fill:#000000"
         id="path1003" />
    </g>
  </g>
</svg>
